{"title":"Budhia Singh (2016) Tiny 720p DvDRip x264 AAC 5.1 ESub -DDR","uid":15913670,"size":1383099167,"categoryP":"video","categoryS":"hd___movies","magnet":"?xt=urn:btih:ca89860adbc769744173d57566515c40a204a765&amp;dn=Budhia+Singh+%282016%29+Tiny+720p+DvDRip+x264+AAC+5.1+ESub+-DDR&amp;tr=udp%3A%2F%2Ftracker.leechers-paradise.org%3A6969&amp;tr=udp%3A%2F%2Fzer0day.ch%3A1337&amp;tr=udp%3A%2F%2Fopen.demonii.com%3A1337&amp;tr=udp%3A%2F%2Ftracker.coppersurfer.tk%3A6969&amp;tr=udp%3A%2F%2Fexodus.desync.com%3A6969","seeders":78,"leechers":285,"uploader":"SaM","files":3,"time":1475162026,"description":"** Budhia Singh - Born To Run **\r\n\r\n** 2016**\r\n\r\n** Tiny 720p / DVDrip / x264\r\n\r\nHindi AAC 5.1 **\r\n\r\n** English Subtitle(s) **\r\n\r\n\r\n\r\n[ SCREENS ]\r\n \nhttps://extraimago.com/image/wUXg \nhttps://extraimago.com/image/wUXX \nhttps://extraimago.com/image/wUXP \nhttps://extraimago.com/image/wUXG \nhttps://extraimago.com/image/wUXr \nhttps://extraimago.com/image/wUXp \nhttps://extraimago.com/image/wUXY \nhttps://extraimago.com/image/wUXB \nhttps://extraimago.com/image/wUX4 \nhttps://extraimago.com/image/wUXe \nhttps://extraimago.com/image/wUXZ \nhttps://extraimago.com/image/wUXJ \nhttps://extraimago.com/image/wUX0 \nhttps://extraimago.com/image/wUXz\r\n\r\n[ Info ]\r\n\r\nSource : DVD9 @ DDR\r\nGeneral\r\nFormat : Matroska\r\nFile size : 1.28 GiB\r\nDuration : 1 h 50 min\r\nOverall bit rate : 1 663 kb/s\r\n\r\nVideo\r\nID : 1\r\nFormat : AVC\r\nFormat/Info : Advanced Video Codec\r\nFormat profile :   \r\nFormat settings, CABAC : Yes\r\nFormat settings, ReFrames : 12 frames\r\nCodec ID : V_MPEG4/ISO/AVC\r\nDuration : 1 h 50 min\r\nBit rate : 1 499 kb/s\r\nWidth : 1 280 pixels\r\nHeight : 544 pixels\r\nDisplay aspect ratio : 2.35:1\r\nFrame rate mode : Constant\r\nFrame rate : 23.976 (24000/1001) FPS\r\nColor space : YUV\r\nChroma subsampling : 4:2:0\r\nBit depth : 8 bits\r\nScan type : Progressive\r\nBits/(Pixel*Frame) : 0.090\r\nStream size : 1.16 GiB (90%)\r\nDefault : Yes\r\nForced : No\r\nColor range : Limited\r\nColor primaries : BT.709\r\nTransfer characteristics : BT.709\r\nMatrix coefficients : BT.709\r\n\r\nAudio\r\nID : 2\r\nFormat : AAC\r\nFormat/Info : Advanced Audio Codec\r\nFormat profile : LC\r\nCodec ID : A_AAC\r\nDuration : 1 h 50 min\r\nBit rate : 160 kb/s\r\nChannel(s) : 6 channels\r\nChannel positions : Front: L C R, Side: L R, LFE\r\nSampling rate : 48.0 kHz\r\nFrame rate : 46.875 FPS (1024 spf)\r\nCompression mode : Lossy\r\nDelay relative to video : 9 ms\r\nStream size : 126 MiB (10%)\r\nLanguage : Hindi\r\nDefault : Yes\r\nForced : No\r\n\r\nChapters : YES","torrent":{"xt":"urn:btih:ca89860adbc769744173d57566515c40a204a765","amp;dn":"Budhia+Singh+%282016%29+Tiny+720p+DvDRip+x264+AAC+5.1+ESub+-DDR","amp;tr":["udp%3A%2F%2Ftracker.leechers-paradise.org%3A6969","udp%3A%2F%2Fzer0day.ch%3A1337","udp%3A%2F%2Fopen.demonii.com%3A1337","udp%3A%2F%2Ftracker.coppersurfer.tk%3A6969","udp%3A%2F%2Fexodus.desync.com%3A6969"],"infoHash":"ca89860adbc769744173d57566515c40a204a765","infoHashBuffer":{"type":"Buffer","data":[202,137,134,10,219,199,105,116,65,115,213,117,102,81,92,64,162,4,167,101]},"announce":[],"urlList":[]}}